<svg height="496" viewBox="-5.5 0 21.041946 19.84" width="526.04865" xmlns="http://www.w3.org/2000/svg"><path d="m4.6693544 19.84c-2.6 0-8.72-.24-9.88-2.24-1.28-2.28 2.04-8.24 3.08-10.04 1.04-1.76 4.64-7.56 7.12-7.56 2.8 0 7.2399996 7.48 8.5599996 10.12 1.92 3.84 2.48 6.4 1.56 7.6-1.52 2.04-8.9599996 2.12-10.4399996 2.12zm.32-18.2c-.72 0-3.08 2.36-5.64 6.76-2.76 4.68-3.48 7.72-3.08 8.4.32.56 3.2 1.4 8.4 1.4 5.4399996 0 8.6399996-.88 9.0799996-1.48.28-.36.04-2.28-1.72-5.84-2.6399996-5.28-6.1199996-9.24-7.0399996-9.24zm.04 11.48c-.48 0-.84-.36-.84-.84v-6.36c0-.48.36-.84.84-.84s.84.36.84.84v6.32c0 .48-.4.88-.84.88zm.84 2.16c0 .464-.376.84-.84.84s-.84-.376-.84-.84.376-.84.84-.84.84.376.84.84z"/></svg>
